<svg id="svg3522" xmlns="http://www.w3.org/2000/svg" width="62.653446mm" height="17.215555mm" viewBox="0 0 177.6 48.8"><defs><style>.cls-1{fill:none;stroke:#050505;stroke-miterlimit:10;}</style></defs><title>Artboard 1</title><g id="g4463"><path id="path3118" d="M88,44.8V13.6h15.6A8.73,8.73,0,0,1,112,22V44.8h-5.6V23.2a3.9,3.9,0,0,0-4-4H93.6V48.8Z"/><path id="path3120" d="M122.4,44.8V13.6H128V44.8Z"/><path id="path3122" d="M122.4,6.4H128V0l-5.6,4Z"/><path id="path3124" d="M144,44.8h-5.6V13.6h30.8a8.2,8.2,0,0,1,8.4,8.4V44.8l-5.6,4V23.2a3.78,3.78,0,0,0-4-4h-7.2V44.8h-5.6V19.2H144V44.8Z"/></g><g id="g4459"><path id="path3054" d="M35.88,0s-2.73,2.16-5.51,4.3A39.11,39.11,0,0,0,18.86,6c-2.8-1.77-5.26-3.73-5.26-3.73S11.49,5.84,10.17,8a28.88,28.88,0,0,0-5.69,3.77C2.44,10.92.08,9.93,0,9.9c2.7,5.45,4.52,10.91,9.47,14.2C17.34,11.66,53.91,12.81,61.95,24c5.19-2.71,7.21-8.53,9.25-13.91-.22.07-3,1-4.8,1.69A29.11,29.11,0,0,0,61.35,8C60,5.46,58,2.08,58,2.08s-2.35,1.75-5.09,3.66c-3.69-.68-8.15-1.51-11.9-1.3C38.45,2.34,35.88,0,35.88,0Z"/><path id="path3051" class="cls-1" d="M2.8,15.23S6.63,26.87,9.29,33.31c11.28,14.88,40.07,15.91,52.63.29,3-6.69,6.45-17,6.45-17A37.15,37.15,0,0,1,57.2,27.34c-2.29,1.26-7.59,2-7.59,2l-13.9-7.2-14,7.06a39.88,39.88,0,0,1-7.59-1.94c-4.77-2.55-8-7.91-11.36-12Z"/></g></svg>